# xmcd
#
# Track frame offsets:
#	150
#	15405
#	27670
#	44821
#	64424
#	83695
#	99293
#	115511
#	141058
#	155208
#	172617
#	191667
#	205333
#	217705
#	234989
#	251059
#
# Disc length: 3567 seconds
# Revision: 1
# Processed by: cddbd v1.5.2PL0 Copyright (c) Steve Scherf et al.
# Submitted via: dBpowerAMP V12.0
#
DISCID=d30ded10
DTITLE=Frank Wakefield - A Tribute to Bill Monroe
DYEAR=2011
DGENRE=Country
TTITLE0=When You Are Lonely
TTITLE1=Rawhide
TTITLE2=That's All Right
TTITLE3=Bluegrass Breakdown
TTITLE4=A Beautiful Life
TTITLE5=Letter From My Darling
TTITLE6=Panhandle Country
TTITLE7=When the Golden Leaves Begin To Fall
TTITLE8=Pike County Breakdown
TTITLE9=Blue Moon of Kentucky
TTITLE10=Blue Grass Stomp
TTITLE11=Swing Low Sweet Chariot
TTITLE12=Close By
TTITLE13=Wheel Hoss
TTITLE14=On and On
TTITLE15=One I Love Is Gone
EXTD=
EXTT0=
EXTT1=
EXTT2=
EXTT3=
EXTT4=
EXTT5=
EXTT6=
EXTT7=
EXTT8=
EXTT9=
EXTT10=
EXTT11=
EXTT12=
EXTT13=
EXTT14=
EXTT15=
PLAYORDER=
